<svg width="30" height="16" viewBox="0 0 30 16" fill="none" xmlns="http://www.w3.org/2000/svg">
    <g clip-path="url(#clip0)">
        <path d="M16.8211 15.2743H17.4768L26.7957 -0.0385742H19.9608L13.7508 10.2137L16.8211 15.2743Z" fill="white"/>
        <path d="M16.821 15.2743H15.5404L13.1104 11.2706L13.7507 10.2137L16.821 15.2743Z" fill="white"/>
        <path d="M15.5404 15.2743H10.6843L13.1104 11.2706L15.5404 15.2743Z" fill="white"/>
        <path d="M13.1566 9.23786L18.7534 -0.0385742H7.53292L13.1566 9.23786Z" fill="white"/>
        <path d="M12.5164 10.2986L9.51556 15.2743H9.46156L0.173554 -0.0385742H6.23699L12.5164 10.2986Z" fill="white"/>
        <path d="M13.7507 10.2986H17.4767V15.2743H13.7507V10.2986Z" fill="white"/>
        <path d="M13.1567 11.2706H17.1643V15.2743H13.1567V11.2706Z" fill="white"/>
    </g>
    <defs>
        <clipPath id="clip0">
            <rect width="27" height="15.2743" transform="matrix(-1 0 0 1 27 0)" fill="white"/>
        </clipPath>
    </defs>
</svg>
