<svg width="61" height="16" viewBox="0 0 61 16" fill="none" xmlns="http://www.w3.org/2000/svg">
    <g clip-path="url(#clip0)">
        <path d="M16.8211 15.2743H17.4768L26.7957 -0.0385742H19.9608L13.7508 10.2137L16.8211 15.2743Z" fill="white"/>
        <path d="M16.821 15.2743H15.5404L13.1104 11.2706L13.7507 10.2137L16.821 15.2743Z" fill="white"/>
        <path d="M15.5404 15.2743H10.6843L13.1104 11.2706L15.5404 15.2743Z" fill="white"/>
        <path d="M13.1566 9.23786L18.7534 -0.0385742H7.53292L13.1566 9.23786Z" fill="white"/>
        <path d="M12.5164 10.2986L9.51556 15.2743H9.46156L0.173554 -0.0385742H6.23699L12.5164 10.2986Z" fill="white"/>
        <path d="M13.7507 10.2986H17.4767V15.2743H13.7507V10.2986Z" fill="white"/>
        <path d="M13.1567 11.2706H17.1643V15.2743H13.1567V11.2706Z" fill="white"/>
    </g>
    <path d="M32.9775 8.83984L33.8271 5.73438H34.9756L33.54 10H32.415L30.9912 5.73438H32.1309L32.9775 8.83984ZM36.3848 10H35.3594V5.73438H36.3848V10ZM39.2998 8.86621C39.2998 8.71582 39.2461 8.59863 39.1387 8.51465C39.0332 8.43066 38.8467 8.34375 38.5791 8.25391C38.3115 8.16406 38.0928 8.07715 37.9229 7.99316C37.3701 7.72168 37.0938 7.34863 37.0938 6.87402C37.0938 6.6377 37.1621 6.42969 37.2988 6.25C37.4375 6.06836 37.6328 5.92773 37.8848 5.82812C38.1367 5.72656 38.4199 5.67578 38.7344 5.67578C39.041 5.67578 39.3154 5.73047 39.5576 5.83984C39.8018 5.94922 39.9912 6.10547 40.126 6.30859C40.2607 6.50977 40.3281 6.74023 40.3281 7H39.3027C39.3027 6.82617 39.249 6.69141 39.1416 6.5957C39.0361 6.5 38.8926 6.45215 38.7109 6.45215C38.5273 6.45215 38.3818 6.49316 38.2744 6.5752C38.1689 6.65527 38.1162 6.75781 38.1162 6.88281C38.1162 6.99219 38.1748 7.0918 38.292 7.18164C38.4092 7.26953 38.6152 7.36133 38.9102 7.45703C39.2051 7.55078 39.4473 7.65234 39.6367 7.76172C40.0977 8.02734 40.3281 8.39355 40.3281 8.86035C40.3281 9.2334 40.1875 9.52637 39.9062 9.73926C39.625 9.95215 39.2393 10.0586 38.749 10.0586C38.4033 10.0586 38.0898 9.99707 37.8086 9.87402C37.5293 9.74902 37.3184 9.5791 37.1758 9.36426C37.0352 9.14746 36.9648 8.89844 36.9648 8.61719H37.9961C37.9961 8.8457 38.0547 9.01465 38.1719 9.12402C38.291 9.23145 38.4834 9.28516 38.749 9.28516C38.9189 9.28516 39.0527 9.24902 39.1504 9.17676C39.25 9.10254 39.2998 8.99902 39.2998 8.86621ZM44.2041 6.52832H42.9238V10H41.8955V6.52832H40.6387V5.73438H44.2041V6.52832ZM46.7119 9.20312H45.3027L45.0566 10H43.958L45.5225 5.73438H46.4893L48.0654 10H46.9609L46.7119 9.20312ZM45.5488 8.40918H46.4658L46.0059 6.92969L45.5488 8.40918ZM49.7295 5.73438L50.6816 8.70215L51.6309 5.73438H52.9844V10H51.9531V9.00391L52.0527 6.96484L51.0215 10H50.3418L49.3076 6.96191L49.4072 9.00391V10H48.3789V5.73438H49.7295ZM56.2861 8.19238H54.6689V9.20898H56.5791V10H53.6406V5.73438H56.585V6.52832H54.6689V7.42773H56.2861V8.19238ZM56.998 10V5.73438H58.3721C58.749 5.73438 59.0879 5.82031 59.3887 5.99219C59.6895 6.16211 59.9238 6.40332 60.0918 6.71582C60.2617 7.02637 60.3477 7.375 60.3496 7.76172V7.95801C60.3496 8.34863 60.2666 8.69922 60.1006 9.00977C59.9365 9.31836 59.7041 9.56055 59.4033 9.73633C59.1045 9.91016 58.7705 9.99805 58.4014 10H56.998ZM58.0264 6.52832V9.20898H58.3838C58.6787 9.20898 58.9053 9.10449 59.0635 8.89551C59.2217 8.68457 59.3008 8.37207 59.3008 7.95801V7.77344C59.3008 7.36133 59.2217 7.05078 59.0635 6.8418C58.9053 6.63281 58.6748 6.52832 58.3721 6.52832H58.0264Z" fill="white"/>
    <defs>
        <clipPath id="clip0">
            <rect width="27" height="15.2743" transform="matrix(-1 0 0 1 27 0)" fill="white"/>
        </clipPath>
    </defs>
</svg>
