<svg width="15" height="15" viewBox="0 0 15 15" fill="none" xmlns="http://www.w3.org/2000/svg">
    <g opacity="0.85">
        <g clip-path="url(#clip0)">
            <path opacity="0.8" d="M7.43991 9.73149C7.61324 9.81767 14.8358 7.84661 14.9954 7.58742C15.155 7.32855 12.558 4.30797 12.558 4.30797L6.0648 6.19986C6.06639 6.19986 7.2669 9.64594 7.43991 9.73149ZM0 5.19917C0 5.38207 3.74102 9.10107 3.99064 9.09596C4.24057 9.08926 6.02554 6.45714 6.02554 6.45714L1.99436 3.06085C1.99436 3.06085 0 5.01435 0 5.19917ZM9.07836 1.2628L8.50987 4.32073L8.11885 1.11597C8.11885 1.11597 2.48784 2.58237 2.48274 2.77198C2.47954 2.9619 5.87615 5.78522 6.18833 5.83151C6.49859 5.87779 12.0492 4.26743 12.128 4.0625C12.2068 3.85757 9.07836 1.26312 9.07836 1.26312V1.2628Z" fill="white"/>
            <path opacity="0.8" d="M6.03101 7.73425C6.03101 7.73425 4.57035 9.88726 4.27381 9.90768C3.97568 9.92811 1.94078 7.73425 1.94078 7.73425C1.94078 7.73425 1.88396 10.0497 1.94078 10.2428C1.99792 10.436 5.67957 14.0356 6.1689 14.116C6.65792 14.1965 12.9327 12.1596 13.04 12.047C13.1469 11.9317 13.4064 8.93125 13.4064 8.93125C13.4064 8.93125 7.43996 10.7216 7.24556 10.6463C7.05117 10.571 6.03101 7.73425 6.03101 7.73425Z" fill="white"/>
        </g>
    </g>
    <defs>
        <clipPath id="clip0">
            <rect width="15" height="15" fill="white"/>
        </clipPath>
    </defs>
</svg>
