<svg width="7" height="5" viewBox="0 0 7 5" fill="none" xmlns="http://www.w3.org/2000/svg">
    <path d="M3.59541 0.277623C3.58462 0.26265 3.57043 0.250456 3.554 0.242045C3.53757 0.233634 3.51938 0.229248 3.50093 0.229248C3.48247 0.229248 3.46428 0.233634 3.44785 0.242045C3.43143 0.250456 3.41723 0.26265 3.40644 0.277623L0.799014 3.88112C0.743349 3.95876 0.799014 4.06715 0.894229 4.06715H1.58124C1.73066 4.06715 1.87275 3.99538 1.96064 3.8738L3.50019 1.74392L5.04122 3.8738C5.12911 3.99538 5.26973 4.06715 5.42061 4.06715H6.10763C6.20284 4.06715 6.2585 3.95876 6.20284 3.88112L3.59541 0.277623Z" fill="black"/>
</svg>
