<svg width="17" height="17" viewBox="0 0 17 17" fill="none" xmlns="http://www.w3.org/2000/svg">
    <path d="M8.47178 1.44015H2.11793C1.72822 1.44015 1.41196 1.75644 1.41196 2.14612V14.8538C1.41196 15.2435 1.72826 15.5597 2.11793 15.5597H8.47178C8.86218 15.5597 9.17774 15.8753 9.17774 16.2657C9.17774 16.6561 8.86218 16.9717 8.47178 16.9717H2.11793C0.95024 16.9717 0 16.0215 0 14.8538V2.14615C0 0.978463 0.95024 0.028223 2.11793 0.028223H8.47178C8.86218 0.028223 9.17774 0.343786 9.17774 0.734188C9.17774 1.12459 8.86218 1.44015 8.47178 1.44015Z" fill="white"/>
    <path d="M16.7896 9.00264L12.4972 13.2385C12.2205 13.5125 11.7729 13.5089 11.499 13.2315C11.2251 12.954 11.2279 12.5071 11.5061 12.2332L14.5735 9.20597H6.35379C5.96339 9.20597 5.64783 8.89041 5.64783 8.50001C5.64783 8.1096 5.96339 7.79401 6.35379 7.79401H14.5735L11.5061 4.76678C11.2279 4.49285 11.2258 4.04597 11.499 3.76853C11.6373 3.62874 11.8195 3.55815 12.0016 3.55815C12.181 3.55815 12.3603 3.62592 12.4972 3.76149L16.7896 7.99738C16.9237 8.13009 17 8.31085 17 8.50004C17 8.68917 16.9244 8.86919 16.7896 9.00264Z" fill="white"/>
</svg>

