<svg xmlns="http://www.w3.org/2000/svg" viewBox="0 0 700 396" isolation="isolate"><style>.a{fill:#3875BF;stroke:rgba(0,0,0,0);}</style><path d="M263.9 396L246.9 396 5.3-1 182.5-1 343.5 264.8 263.9 396Z" class="a"/><path d="M263.9 396L297.1 396 360.1 292.2 343.5 264.8 263.9 396Z" class="a"/><path d="M297.1 396L423 396 360.1 292.2 297.1 396Z" class="a"/><path d="M358.9 239.5L213.8-1 504.7-1 358.9 239.5Z" class="a"/><path d="M375.5 267L453.3 396 454.7 396 695.5-1 538.3-1 375.5 267Z" class="a"/><rect x="246.9" y="267" width="96.6" height="129" transform="matrix(1 0 0 1 0 0)" class="a"/><rect x="255" y="292.2" width="103.9" height="103.8" transform="matrix(1 0 0 1 0 0)" class="a"/></svg>
