<svg width="7" height="7" viewBox="0 0 7 7" fill="none" xmlns="http://www.w3.org/2000/svg">
    <path d="M6.12516 3.20834H3.79183V0.87501C3.79183 0.797655 3.7611 0.723469 3.7064 0.668771C3.6517 0.614073 3.57752 0.583344 3.50016 0.583344C3.42281 0.583344 3.34862 0.614073 3.29392 0.668771C3.23923 0.723469 3.2085 0.797655 3.2085 0.87501V3.20834H0.875163C0.797808 3.20834 0.723621 3.23907 0.668923 3.29377C0.614225 3.34847 0.583496 3.42266 0.583496 3.50001C0.583496 3.57736 0.614225 3.65155 0.668923 3.70625C0.723621 3.76095 0.797808 3.79168 0.875163 3.79168H3.2085V6.12501C3.2085 6.20236 3.23923 6.27655 3.29392 6.33125C3.34862 6.38595 3.42281 6.41668 3.50016 6.41668C3.57752 6.41668 3.6517 6.38595 3.7064 6.33125C3.7611 6.27655 3.79183 6.20236 3.79183 6.12501V3.79168H6.12516C6.20252 3.79168 6.2767 3.76095 6.3314 3.70625C6.3861 3.65155 6.41683 3.57736 6.41683 3.50001C6.41683 3.42266 6.3861 3.34847 6.3314 3.29377C6.2767 3.23907 6.20252 3.20834 6.12516 3.20834Z" fill="black"/>
</svg>


