<svg width="7" height="7" viewBox="0 0 7 7" fill="none" xmlns="http://www.w3.org/2000/svg">
    <path d="M6.78318 1.23062H6.09792L5.78743 6.78866C5.78102 6.90442 5.68519 6.99497 5.5693 6.99497H1.432C1.3161 6.99497 1.2203 6.90449 1.2139 6.78888L0.898432 1.23062H0.220505C0.0997003 1.23062 0.00195312 1.1328 0.00195312 1.01211C0.00195312 0.891459 0.0997003 0.793644 0.220505 0.793644H1.04638C1.05633 0.793644 1.0661 0.794368 1.0757 0.795653C1.08536 0.794337 1.09509 0.793666 1.10484 0.793644H2.25169V0.22179C2.25169 0.101142 2.34944 0.00332642 2.47021 0.00332642H4.52641C4.64719 0.00332642 4.74492 0.101142 4.74492 0.22179V0.793644H5.89136C5.90268 0.793644 5.91391 0.794526 5.92496 0.796255C5.93616 0.794514 5.94747 0.793641 5.95879 0.793644H6.78318C6.90396 0.793644 7.00171 0.891459 7.00171 1.01211C7.00171 1.1328 6.90396 1.23062 6.78318 1.23062ZM4.30786 0.440301H2.68875V0.793644H4.30786V0.440301ZM1.33616 1.23062L1.63856 6.55799H5.36274L5.66021 1.23062H1.33616ZM4.79057 5.94222C4.78398 6.05848 4.68772 6.14831 4.5727 6.14831C4.56842 6.14831 4.56438 6.14822 4.56013 6.148C4.43953 6.14116 4.34756 6.03791 4.35439 5.91746L4.58422 1.86772C4.59107 1.74707 4.69604 1.65681 4.81471 1.66194C4.93528 1.66875 5.02725 1.77203 5.02044 1.89249L4.79057 5.94222ZM3.49842 6.14831C3.3776 6.14831 3.2799 6.05052 3.2799 5.92982V1.88011C3.2799 1.75942 3.3776 1.66163 3.49842 1.66163C3.61919 1.66163 3.71693 1.75942 3.71693 1.88011V5.92982C3.71693 6.05052 3.61919 6.14831 3.49842 6.14831ZM2.42881 6.148C2.42462 6.14821 2.42042 6.14832 2.41622 6.14831C2.30119 6.14831 2.20495 6.05848 2.19833 5.94222L1.96849 1.89249C1.96165 1.77203 2.05365 1.66875 2.1742 1.66194C2.29181 1.65648 2.39786 1.74707 2.40472 1.86772L2.63452 5.91746C2.64136 6.03791 2.54939 6.14116 2.42881 6.148Z" fill="black"/>
</svg>

